# xmcd
#
# Track frame offsets: 
#        150
#        17544
#        38509
#        59863
#
# Disc length: 1006 seconds
#
# Revision: 4
# Processed by: cddbd v1.5.2PL0 Copyright (c) Steve Scherf et al.
# Submitted via: ExactAudioCopy v1.1
#
DISCID=2b03ec04
DTITLE=Jawoll - Taxi (EP) (MCD)
DYEAR=1982
DGENRE=Neue Deutsche Welle
TTITLE0=Taxi (7'' Version)
TTITLE1=Süden (EP Version)
TTITLE2=Langeweile (EP Version)
TTITLE3=Wir sind toll, Jawoll (7'' Version)
EXTD=
EXTT0=
EXTT1=
EXTT2=
EXTT3=
PLAYORDER=
